<?xml version="1.0" encoding="iso-8859-1"?>
<!-- Generator: Adobe Illustrator 16.0.0, SVG Export Plug-In . SVG Version: 6.00 Build 0)  -->
<!DOCTYPE svg PUBLIC "-//W3C//DTD SVG 1.1//EN" "http://www.w3.org/Graphics/SVG/1.1/DTD/svg11.dtd">
<svg version="1.1" id="Capa_1" xmlns="http://www.w3.org/2000/svg" xmlns:xlink="http://www.w3.org/1999/xlink" x="0px" y="0px"
	 width="97.191px" height="97.191px" viewBox="0 0 97.191 97.191" style="enable-background:new 0 0 97.191 97.191;"
	 xml:space="preserve">
<g>
	<path d="M77.322,11.674c-14.367-7.48-28.414-5.783-42.628,0.835c-2.147,1.001-2.945,2.02-3.787,3.606
		c-1.933,3.648-3.082,7.101-3.763,10.019c-4.013,4.828-6.894,10.646-8.227,17.041c-1.986,3.411-3.749,7.885-4.396,13.54
		c-0.153,1.456-0.109,1.504-0.109,1.504S7.768,57.377,0,53.14c1.709,2.757,11.647,6.124,14.495,7.167
		c0.329,18.64,12.211,24.92,12.211,24.92s-2.121-3.251-2.491-3.83c-6.247-11.362-5.173-19.775-5.173-19.775
		c0.133,0.024,0.281,0.052,0.436,0.08c4.524,16.563,19.56,28.728,37.415,28.728c1.137,0,2.261-0.051,3.373-0.148
		c2.66,0.275,5.233,0.081,7.631-0.742c1.305-0.444,2.625-1.211,3.85-2.082c13.312-7.397,19.13-15.553,23.34-28.019
		c0.996-3.068,1.541-6.721,1.879-9.915C98.622,33.895,91.104,18.853,77.322,11.674z M20.395,54.117
		c0.872-3.265,2.534-7.456,5.654-10.482c0.338,9.109,3.001,17.089,3.001,17.089l-7.865-1.293
		C20.798,57.702,20.533,55.928,20.395,54.117z M26.331,30.95c-0.237,2.345-0.14,3.752-0.14,3.752
		c-0.625,0.482-1.914,1.529-3.421,3.193C23.718,35.443,24.912,33.117,26.331,30.95z M21.915,62.22
		c2.821,0.629,6.431,1.487,8.171,1.746c0,0,5.208,14.587,20.585,23.612c0.156,0.068,0.313,0.133,0.471,0.197
		C37.289,85.561,25.995,75.479,21.915,62.22z M73.275,84.313c-2.743,0.887-6.855,1.556-12.292,0.662
		c-17.281-4.376-24.199-20.44-24.199-20.44c7.253,0.155,9.932-0.049,14.791-0.739c7.494-1.067,15.021-3.101,21.845-6.275
		c2.25-1.047,2.043-3.672,1.799-5.649c-0.422-2.426-2.084-2.319-4.043-0.884C55.617,62.113,35.154,61.162,35.154,61.162
		s-3.589-6.08-5.106-21.017c7.859-6.709,15.771-11.321,31.963-9.986c0.041-1.206,0.566-5.119-3.879-5.309
		c-17.767-2.092-27.7,6.353-27.7,6.353c0.427-3.119,1.082-5.554,2.084-7.478c6.479-5.847,15.021-9.409,24.374-9.409
		c20.19,0,36.617,16.58,36.617,36.96C93.508,65.712,85.26,78.233,73.275,84.313z"/>
</g>
<g>
</g>
<g>
</g>
<g>
</g>
<g>
</g>
<g>
</g>
<g>
</g>
<g>
</g>
<g>
</g>
<g>
</g>
<g>
</g>
<g>
</g>
<g>
</g>
<g>
</g>
<g>
</g>
<g>
</g>
</svg>
